<?xml version="1.0" standalone="no"?>
<!DOCTYPE svg PUBLIC "-//W3C//DTD SVG 20010904//EN"
 "http://www.w3.org/TR/2001/REC-SVG-20010904/DTD/svg10.dtd">
<svg version="1.0" xmlns="http://www.w3.org/2000/svg"
id="svg" viewBox="0 0 116.000000 104.000000"
 preserveAspectRatio="xMidYMid meet">

<g transform="translate(0.000000,104.000000) scale(0.100000,-0.100000)" stroke="none">
<path d="M134 1006 l-34 -34 0 -179 0 -179 -50 -129 c-45 -118 -50 -138 -50
-212 0 -73 2 -83 22 -97 12 -9 38 -16 56 -16 34 0 34 -1 28 -32 -17 -79 -18
-98 -6 -113 19 -23 941 -23 960 0 12 15 8 92 -6 130 -5 11 2 15 28 15 18 0 44
7 56 16 20 14 22 24 22 97 0 75 -5 94 -50 212 l-50 129 0 173 c0 112 -4 181
-12 198 -24 54 -33 55 -474 55 l-406 0 -34 -34z m337 -51 c-44 -50 -56 -102
-35 -157 9 -24 19 -69 21 -100 l5 -58 -151 0 -151 0 0 165 c0 146 2 165 18
174 9 6 85 11 171 11 l153 0 -31 -35z m515 21 c17 -13 19 -30 22 -175 l3 -161
-155 0 -156 0 0 48 c0 28 8 64 20 87 33 66 20 138 -36 190 l-27 25 155 0 c117
0 159 -3 174 -14z m-329 -61 c27 -31 31 -94 7 -130 -19 -29 -72 -48 -108 -39
-61 15 -94 96 -62 153 32 57 121 66 163 16z m-109 -248 c2 -19 -1 -27 -12 -27
-11 0 -16 10 -16 31 0 38 24 35 28 -4z m102 3 c0 -23 -4 -30 -20 -30 -36 0
-25 55 13 59 4 1 7 -12 7 -29z m-200 -90 c0 -6 -10 -49 -21 -95 l-21 -85 -164
0 c-90 0 -164 2 -164 4 0 3 27 76 59 159 l11 27 150 0 c97 0 150 -4 150 -10z
m100 -85 l0 -95 -44 0 -45 0 25 91 c13 50 24 92 24 95 0 2 9 4 20 4 19 0 20
-7 20 -95z m109 58 c5 -21 16 -64 24 -95 l15 -58 -44 0 -44 0 0 95 c0 88 2 95
20 95 14 0 22 -10 29 -37z m388 -53 c17 -47 32 -88 32 -92 1 -5 -73 -8 -163
-8 l-164 0 -21 85 c-11 46 -21 89 -21 95 0 7 50 10 152 8 l152 -3 33 -85z m63
-220 l0 -60 -40 0 c-29 0 -40 4 -40 15 0 8 5 15 10 15 6 0 10 14 10 30 l0 30
-470 0 -470 0 0 -30 c0 -16 5 -30 10 -30 6 0 10 -7 10 -15 0 -11 -11 -15 -40
-15 l-40 0 0 60 0 60 530 0 530 0 0 -60z m-862 -87 l-3 -58 335 0 335 0 -3 58
-3 58 33 -3 c32 -3 33 -5 50 -78 9 -41 20 -85 23 -97 l5 -23 -435 0 c-372 0
-435 2 -435 14 0 14 25 132 36 169 4 11 15 17 35 17 l30 0 -3 -57z m606 35
c13 -50 23 -48 -274 -48 -297 0 -287 -2 -274 48 l6 22 268 0 268 0 6 -22z"/>
<path d="M210 695 c0 -21 5 -25 30 -25 25 0 30 4 30 25 0 21 -5 25 -30 25 -25
0 -30 -4 -30 -25z"/>
<path d="M853 958 c-28 -13 -46 -58 -37 -92 14 -58 96 -77 133 -30 56 72 -14
161 -96 122z m63 -59 c3 -6 0 -18 -9 -26 -18 -18 -37 -9 -37 18 0 21 34 27 46
8z"/>
<path d="M890 680 c0 -28 3 -31 28 -28 21 2 27 8 27 28 0 20 -6 26 -27 28 -25
3 -28 0 -28 -28z"/>
</g>
</svg>
