<?xml version="1.0" standalone="no"?>
<!DOCTYPE svg PUBLIC "-//W3C//DTD SVG 20010904//EN"
 "http://www.w3.org/TR/2001/REC-SVG-20010904/DTD/svg10.dtd">
<svg version="1.0" xmlns="http://www.w3.org/2000/svg"
id="svg" viewBox="0 0 143.000000 102.000000"
 preserveAspectRatio="xMidYMid meet">

<g transform="translate(0.000000,102.000000) scale(0.100000,-0.100000)"
stroke="none">
<path d="M422 1003 c-19 -9 -36 -22 -39 -30 -4 -10 -32 -13 -108 -13 -121 0
-151 -14 -196 -96 -51 -90 -71 -190 -71 -354 0 -164 20 -264 71 -354 45 -81
75 -96 192 -96 90 0 100 -2 125 -25 14 -13 41 -27 58 -30 17 -3 205 -5 418 -3
446 3 418 -3 476 107 102 189 102 613 0 802 -59 110 -28 104 -491 106 -358 3
-406 1 -435 -14z m178 -37 c0 -2 -11 -23 -24 -47 -104 -187 -104 -631 0 -818
13 -24 24 -45 24 -47 0 -2 -31 -4 -69 -4 -81 0 -109 17 -145 88 -48 97 -61
172 -61 372 0 200 13 275 61 372 36 71 64 88 145 88 38 0 69 -2 69 -4z m223
-31 l-17 -35 -93 0 -93 0 16 25 c25 38 42 44 126 45 l78 0 -17 -35z m305 28
c-76 -149 -98 -252 -98 -453 0 -201 22 -304 98 -452 2 -5 -44 -8 -103 -8 -106
0 -107 0 -135 30 -64 68 -102 228 -102 425 0 203 38 366 102 435 28 30 29 30
135 30 59 0 105 -3 103 -7z m134 -12 c33 -26 72 -117 94 -216 23 -109 23 -341
0 -450 -21 -100 -66 -198 -100 -221 -54 -34 -105 24 -147 166 -30 106 -39 372
-15 490 23 109 51 182 86 220 33 35 48 37 82 11z m-943 -98 c-31 -91 -49 -216
-49 -343 0 -127 18 -252 49 -342 l20 -58 -75 0 c-42 0 -84 5 -94 10 -30 16
-68 89 -91 176 -30 112 -30 316 0 428 22 84 60 159 89 175 9 6 52 11 94 11
l77 0 -20 -57z m461 -10 c0 -5 -5 -25 -11 -45 l-10 -38 -95 0 c-94 0 -95 0
-88 23 22 71 16 67 114 67 49 0 90 -3 90 -7z m-34 -155 c-3 -13 -6 -33 -6 -45
0 -22 -3 -23 -95 -23 -103 0 -101 -1 -89 59 l7 31 94 0 c94 0 95 0 89 -22z
m-15 -122 c3 -3 3 -23 1 -45 l-4 -41 -94 0 -94 0 0 38 c0 21 3 42 7 45 7 8
177 10 184 3z m9 -181 l0 -46 -92 3 -93 3 -3 43 -3 42 95 0 96 0 0 -45z m20
-125 c4 -14 10 -37 14 -52 l6 -28 -93 0 -94 0 -11 39 c-22 73 -23 72 80 69 88
-3 92 -4 98 -28z m60 -170 l20 -40 -81 0 c-78 0 -82 1 -110 31 -16 17 -29 35
-29 40 0 5 40 9 90 9 l90 0 20 -40z"/>
<path d="M1197 889 c-9 -5 -25 -27 -36 -47 -37 -74 -46 -140 -46 -332 0 -125
5 -203 14 -240 44 -177 127 -198 179 -46 62 185 35 593 -44 655 -30 23 -41 25
-67 10z m68 -121 c35 -126 35 -390 0 -516 -23 -80 -38 -94 -60 -52 -60 115
-60 505 0 620 22 42 37 28 60 -52z"/>
</g>
</svg>
