<?xml version="1.0" standalone="no"?>
<!DOCTYPE svg PUBLIC "-//W3C//DTD SVG 20010904//EN"
 "http://www.w3.org/TR/2001/REC-SVG-20010904/DTD/svg10.dtd">
<svg version="1.0" xmlns="http://www.w3.org/2000/svg"
id="svg" viewBox="0 0 126.000000 134.000000"
 preserveAspectRatio="xMidYMid meet">

<g transform="translate(0.000000,134.000000) scale(0.100000,-0.100000)"
stroke="none">
<path d="M440 1255 l0 -85 -70 0 c-63 0 -71 -2 -86 -25 -12 -18 -25 -25 -49
-25 -30 0 -37 -8 -114 -123 -44 -67 -81 -130 -81 -140 0 -20 75 -77 101 -77
13 0 47 42 106 130 81 122 85 132 73 155 -20 38 0 55 66 55 47 0 54 -3 54 -19
0 -16 8 -20 38 -23 34 -3 37 -6 40 -35 3 -33 3 -33 -42 -33 l-46 0 0 -40 c0
-39 -1 -40 -35 -40 l-35 0 0 -53 c0 -42 -9 -72 -43 -143 -71 -146 -72 -151
-53 -173 24 -26 7 -56 -34 -65 -29 -5 -37 -19 -126 -203 -104 -216 -115 -250
-89 -276 18 -19 76 -22 106 -7 11 6 63 99 120 212 127 253 123 244 100 265
-16 13 -17 20 -9 39 7 15 20 24 34 24 29 0 49 27 104 138 24 51 49 92 56 92
13 0 24 -67 24 -151 0 -59 15 -89 46 -89 29 0 14 -36 -18 -45 l-33 -10 4 -220
c4 -259 5 -265 79 -265 84 0 82 -4 91 245 4 121 6 226 3 233 -2 7 -17 16 -33
19 -35 7 -39 34 -7 48 27 12 37 54 37 163 1 104 19 96 85 -37 53 -105 67 -121
105 -121 10 0 23 -11 29 -24 9 -21 8 -26 -8 -31 -10 -3 -21 -12 -24 -20 -8
-21 208 -451 233 -464 30 -16 87 -13 106 6 26 26 15 60 -89 276 -87 180 -98
198 -124 203 -34 7 -60 49 -36 58 24 9 16 44 -41 163 -43 90 -55 126 -55 164
0 47 -1 48 -32 51 -30 3 -33 6 -36 41 -3 36 -4 37 -43 37 -38 0 -39 1 -39 35
0 34 1 35 40 35 l40 0 0 130 0 130 -195 0 -195 0 0 -85z m80 -25 l0 -60 115 0
115 0 0 60 c0 47 3 60 15 60 12 0 15 -16 15 -85 l0 -86 -142 3 -143 3 -3 83
c-2 68 0 82 13 82 12 0 15 -13 15 -60z m175 25 c0 -30 0 -30 -62 -33 l-63 -3
0 29 c0 40 6 43 70 40 54 -3 55 -4 55 -33z m0 -210 c0 -30 0 -30 -62 -33 l-63
-3 0 29 c0 40 6 43 70 40 54 -3 55 -4 55 -33z m-430 -13 c-8 -22 -127 -192
-134 -192 -17 1 -33 20 -28 34 3 8 33 56 67 106 56 83 62 89 80 77 11 -6 18
-18 15 -25z m515 -87 c0 -13 -23 -15 -150 -15 -127 0 -150 2 -150 15 0 13 23
15 150 15 127 0 150 -2 150 -15z m70 -74 c0 -6 -10 -17 -22 -25 -32 -23 -345
-23 -388 -1 -17 9 -30 20 -30 25 0 6 84 10 220 10 131 0 220 -4 220 -9z m-416
-84 c16 -12 14 -18 -23 -100 -37 -81 -42 -87 -70 -87 l-30 0 35 78 c56 119 57
122 64 122 3 0 14 -6 24 -13z m472 -83 c24 -52 44 -97 44 -100 0 -2 -12 -4
-28 -4 -25 0 -32 9 -71 87 -40 82 -42 88 -25 100 10 7 22 13 26 13 5 0 29 -43
54 -96z m-236 4 c0 -102 -6 -118 -41 -118 -28 0 -29 2 -29 49 0 26 -3 69 -6
95 l-7 46 42 0 41 0 0 -72z m-386 -280 c-4 -13 -47 -103 -96 -201 -78 -158
-91 -178 -111 -175 -12 2 -21 9 -19 17 1 7 42 96 89 197 83 175 89 184 116
184 25 0 27 -3 21 -22z m387 -123 c-1 -77 -4 -166 -8 -197 -5 -53 -8 -58 -30
-58 -13 0 -25 6 -27 13 -3 6 -7 97 -11 200 l-6 188 42 -3 42 -3 -2 -140z m442
-39 c47 -101 88 -190 89 -197 2 -8 -7 -15 -19 -17 -20 -3 -33 17 -111 175
-112 223 -112 223 -75 223 27 0 33 -9 116 -184z"/>
</g>
</svg>
