<?xml version="1.0" standalone="no"?>
<!DOCTYPE svg PUBLIC "-//W3C//DTD SVG 20010904//EN"
 "http://www.w3.org/TR/2001/REC-SVG-20010904/DTD/svg10.dtd">
<svg version="1.0" xmlns="http://www.w3.org/2000/svg" id="img" viewBox="0 0 41.000000 41.000000"
 preserveAspectRatio="xMidYMid meet">

<g transform="translate(0.000000,41.000000) scale(0.100000,-0.100000)" stroke="none">
<path d="M125 391 c-49 -23 -89 -64 -109 -113 -42 -100 11 -218 117 -263 l37
-15 0 75 c0 73 -1 75 -25 75 -20 0 -25 5 -25 25 0 20 5 25 24 25 21 0 24 6 29
47 6 59 35 85 86 81 28 -2 37 -8 39 -25 2 -17 -3 -23 -27 -28 -27 -6 -31 -11
-31 -41 0 -30 3 -34 25 -34 20 0 25 -5 25 -25 0 -20 -5 -25 -25 -25 -24 0 -25
-2 -25 -75 l0 -75 38 15 c49 21 90 61 113 110 76 163 -103 342 -266 266z"/>
</g>
</svg>
