<?xml version="1.0" standalone="no"?>
<!DOCTYPE svg PUBLIC "-//W3C//DTD SVG 20010904//EN"
 "http://www.w3.org/TR/2001/REC-SVG-20010904/DTD/svg10.dtd">
<svg version="1.0" xmlns="http://www.w3.org/2000/svg" id="img" viewBox="0 0 41.000000 41.000000"
 preserveAspectRatio="xMidYMid meet">

<g transform="translate(0.000000,41.000000) scale(0.100000,-0.100000)" stroke="none">
<path d="M62 395 c-48 -21 -62 -64 -62 -190 0 -182 23 -205 205 -205 182 0
205 23 205 205 0 183 -23 205 -207 205 -71 -1 -119 -6 -141 -15z m283 -50 c24
-23 25 -30 25 -140 0 -110 -1 -117 -25 -140 -23 -24 -30 -25 -140 -25 -110 0
-117 1 -140 25 -24 23 -25 30 -25 140 0 110 1 117 25 140 23 24 30 25 140 25
110 0 117 -1 140 -25z"/>
<path d="M294 325 c-4 -9 -2 -21 4 -27 15 -15 44 -1 40 19 -4 23 -36 29 -44 8z"/>
<path d="M134 276 c-47 -47 -47 -95 0 -142 47 -47 95 -47 142 0 26 26 34 42
34 71 0 29 -8 45 -34 71 -26 26 -42 34 -71 34 -29 0 -45 -8 -71 -34z m118 -23
c22 -20 23 -70 1 -95 -20 -22 -70 -23 -95 -1 -22 20 -23 70 -1 95 20 22 70 23
95 1z"/>
</g>
</svg>
