<?xml version="1.0" standalone="no"?>
<!DOCTYPE svg PUBLIC "-//W3C//DTD SVG 20010904//EN"
 "http://www.w3.org/TR/2001/REC-SVG-20010904/DTD/svg10.dtd">
<svg version="1.0" xmlns="http://www.w3.org/2000/svg"
id="svg" viewBox="0 0 149.000000 94.000000"
 preserveAspectRatio="xMidYMid meet">

<g transform="translate(0.000000,94.000000) scale(0.100000,-0.100000)"
stroke="none">
<path d="M1136 924 c-9 -8 -16 -21 -16 -28 0 -9 -24 -15 -77 -19 -43 -3 -174
-15 -290 -28 -210 -22 -213 -22 -213 -46 0 -21 -4 -23 -54 -23 -45 0 -54 3
-59 20 -5 19 -14 20 -151 20 -135 0 -147 -1 -158 -20 -10 -15 -24 -20 -55 -20
-32 0 -45 -5 -53 -19 -15 -29 -13 -344 2 -359 7 -7 31 -12 54 -12 25 0 47 -6
54 -15 7 -8 21 -15 31 -15 11 0 19 -3 19 -7 0 -5 9 -80 20 -168 15 -124 23
-163 37 -172 22 -17 654 -19 684 -3 27 15 27 95 0 110 -12 6 -124 10 -295 10
l-276 0 0 33 c0 17 -3 69 -7 115 l-6 82 47 0 c39 0 49 4 53 20 5 17 14 20 59
20 50 0 54 -2 54 -24 0 -26 -30 -21 403 -63 120 -12 177 -22 177 -30 0 -6 7
-19 16 -27 23 -23 299 -23 332 0 22 15 22 16 22 334 0 276 -2 321 -16 334 -23
23 -315 23 -338 0z m299 -334 l0 -295 -130 0 -130 0 -3 298 -2 298 132 -3 133
-3 0 -295z m-315 0 l0 -240 -40 0 -40 0 0 200 0 200 -25 0 -25 0 0 -195 c0
-158 -3 -195 -14 -195 -21 0 -306 29 -348 36 l-38 6 0 189 c0 104 1 189 3 190
21 5 428 47 470 48 l57 1 0 -240z m-740 0 l0 -180 -110 0 -110 0 0 180 0 180
110 0 110 0 0 -180z m-270 -5 l0 -145 -30 0 -30 0 0 145 0 145 30 0 30 0 0
-145z m430 5 l0 -140 -55 0 -55 0 0 140 0 140 55 0 55 0 0 -140z m-255 -347
c4 -65 11 -128 16 -141 l9 -22 285 0 c248 0 285 -2 285 -15 0 -13 -39 -15
-312 -13 l-313 3 -11 90 c-6 50 -14 118 -18 153 l-7 62 30 0 29 0 7 -117z"/>
</g>
</svg>
