<?xml version="1.0" standalone="no"?>
<!DOCTYPE svg PUBLIC "-//W3C//DTD SVG 20010904//EN"
 "http://www.w3.org/TR/2001/REC-SVG-20010904/DTD/svg10.dtd">
<svg version="1.0" xmlns="http://www.w3.org/2000/svg"
id="svg" viewBox="0 0 121.000000 97.000000"
 preserveAspectRatio="xMidYMid meet">

<g transform="translate(0.000000,97.000000) scale(0.100000,-0.100000)" stroke="none">
<path d="M458 948 c-8 -13 -25 -42 -37 -65 -19 -38 -25 -43 -56 -43 -31 0 -35
3 -35 25 0 24 -3 25 -55 25 -52 0 -55 -1 -55 -25 0 -25 -1 -25 -83 -25 -77 0
-85 -2 -108 -26 l-24 -26 0 -369 0 -368 23 -23 23 -23 554 0 554 0 23 23 c23
23 23 23 26 382 3 449 11 427 -138 432 -59 3 -65 5 -68 26 -3 20 -9 22 -58 22
-51 0 -54 -1 -54 -25 0 -23 -3 -25 -49 -25 l-49 0 -34 63 -35 62 -125 3 c-121
2 -126 2 -140 -20z m267 -100 l30 -58 195 -2 195 -3 3 -52 3 -53 -177 0 c-173
0 -178 1 -233 28 -49 24 -68 27 -151 27 -83 0 -102 -3 -151 -27 -54 -27 -62
-28 -218 -28 l-162 0 3 53 3 52 186 3 186 2 17 38 c40 85 36 83 144 80 l97 -3
30 -57z m-15 -180 c58 -24 115 -80 148 -143 37 -70 38 -187 3 -259 -53 -108
-150 -169 -271 -170 -128 -2 -222 60 -278 182 -21 47 -24 65 -20 131 3 46 12
90 23 111 78 152 243 214 395 148z m-410 -80 c-77 -106 -79 -273 -5 -382 14
-20 25 -39 25 -41 0 -3 -58 -5 -130 -5 l-130 0 0 235 0 235 135 0 135 0 -30
-42z m850 -193 l0 -235 -146 0 c-80 0 -144 3 -142 8 2 4 16 31 31 60 59 113
56 239 -8 347 l-34 55 150 0 149 0 0 -235z m-724 -310 l48 -25 -205 2 c-203 3
-204 3 -207 26 l-3 22 160 0 c152 0 162 -1 207 -25z m722 3 c-3 -23 -3 -23
-223 -25 l-220 -3 40 24 c38 23 48 24 223 25 l183 1 -3 -22z"/>
<path d="M540 840 c0 -30 1 -30 55 -30 54 0 55 0 55 30 0 30 -1 30 -55 30 -54
0 -55 0 -55 -30z"/>
<path d="M960 730 c0 -18 7 -20 70 -20 63 0 70 2 70 20 0 18 -7 20 -70 20 -63
0 -70 -2 -70 -20z"/>
<path d="M505 637 c-138 -54 -206 -193 -160 -328 36 -104 130 -169 244 -169
83 0 133 22 187 82 49 53 68 104 67 178 -1 98 -57 184 -148 226 -55 26 -139
31 -190 11z m172 -61 c104 -53 143 -176 90 -277 -67 -126 -238 -146 -331 -38
-95 111 -50 276 89 328 37 13 114 7 152 -13z"/>
<path d="M536 550 c-49 -15 -89 -60 -106 -121 -8 -27 -7 -29 18 -29 22 0 30 8
43 38 14 34 35 51 82 66 10 3 17 15 17 31 0 26 -7 29 -54 15z"/>
</g>
</svg>
