<?xml version="1.0" standalone="no"?>
<!DOCTYPE svg PUBLIC "-//W3C//DTD SVG 20010904//EN"
 "http://www.w3.org/TR/2001/REC-SVG-20010904/DTD/svg10.dtd">
<svg version="1.0" xmlns="http://www.w3.org/2000/svg"
id="svg" viewBox="0 0 129.000000 121.000000"
 preserveAspectRatio="xMidYMid meet">

<g transform="translate(0.000000,121.000000) scale(0.100000,-0.100000)" stroke="none">
<path d="M213 1202 c-6 -4 -13 -23 -15 -42 l-3 -35 -85 -3 c-46 -2 -90 -8 -97
-14 -19 -16 -19 -990 0 -1006 7 -6 51 -12 97 -14 l85 -3 3 -35 c2 -19 9 -38
15 -42 7 -4 60 -8 119 -8 117 0 128 5 128 64 0 26 1 26 83 26 51 0 88 5 95 12
8 8 12 46 12 105 l0 93 180 0 180 0 0 133 c0 90 4 137 12 145 8 8 47 12 111
12 96 0 99 1 128 29 l29 29 0 141 0 141 -317 2 -318 3 -3 80 c-2 43 -8 85 -14
92 -7 9 -38 13 -94 13 -83 0 -84 0 -84 26 0 59 -11 64 -128 64 -59 0 -112 -4
-119 -8z m187 -62 c0 -18 -7 -20 -75 -20 -68 0 -75 2 -75 20 0 18 7 20 75 20
68 0 75 -2 75 -20z m200 -105 l0 -35 -275 0 -275 0 0 28 c0 16 3 32 7 35 3 4
127 7 275 7 l268 0 0 -35z m-370 -430 l0 -346 -87 3 -88 3 -3 330 c-1 181 0
336 3 342 3 9 30 13 90 13 l85 0 0 -345z m365 335 c-4 -6 -67 -10 -156 -10
-93 0 -149 4 -149 10 0 6 59 10 156 10 101 0 153 -3 149 -10z m645 -164 c0
-133 -3 -136 -136 -136 -134 0 -138 -4 -144 -162 l-5 -123 -322 -3 -323 -2 0
-25 0 -25 145 0 c138 0 145 -1 145 -20 0 -19 -7 -20 -155 -20 l-155 0 0 310 0
310 475 0 475 0 0 -104z m-640 -601 l0 -35 -272 2 -273 3 -3 33 -3 32 275 0
276 0 0 -35z m-200 -105 c0 -18 -7 -20 -75 -20 -68 0 -75 2 -75 20 0 18 7 20
75 20 68 0 75 -2 75 -20z"/>
<path d="M314 836 c-3 -8 -4 -29 -2 -48 2 -28 7 -33 28 -33 23 0 25 4 28 48 3
45 2 47 -23 47 -14 0 -28 -6 -31 -14z"/>
<path d="M410 800 c0 -47 2 -50 25 -50 23 0 25 3 25 50 0 47 -2 50 -25 50 -23
0 -25 -3 -25 -50z"/>
<path d="M502 803 c3 -44 5 -48 28 -48 23 0 25 4 25 45 0 42 -2 45 -28 48 -28
3 -28 3 -25 -45z"/>
<path d="M600 799 c0 -47 2 -50 23 -47 19 3 22 10 25 51 3 45 2 47 -22 47 -24
0 -26 -3 -26 -51z"/>
<path d="M690 800 c0 -47 2 -50 25 -50 23 0 25 3 25 50 0 47 -2 50 -25 50 -23
0 -25 -3 -25 -50z"/>
<path d="M784 836 c-3 -8 -4 -29 -2 -48 2 -28 7 -33 28 -33 23 0 25 4 28 48 3
45 2 47 -23 47 -14 0 -28 -6 -31 -14z"/>
<path d="M880 800 c0 -47 2 -50 25 -50 23 0 25 3 25 50 0 47 -2 50 -25 50 -23
0 -25 -3 -25 -50z"/>
<path d="M972 803 c3 -44 5 -48 28 -48 23 0 25 4 25 45 0 42 -2 45 -28 48 -28
3 -28 3 -25 -45z"/>
<path d="M1064 836 c-3 -8 -4 -29 -2 -48 2 -28 7 -33 28 -33 23 0 25 4 28 48
3 45 2 47 -23 47 -14 0 -28 -6 -31 -14z"/>
<path d="M1160 800 c0 -47 2 -50 25 -50 23 0 25 3 25 50 0 47 -2 50 -25 50
-23 0 -25 -3 -25 -50z"/>
<path d="M310 425 c0 -43 1 -45 30 -45 29 0 30 2 30 45 0 43 -1 45 -30 45 -29
0 -30 -2 -30 -45z"/>
<path d="M410 425 c0 -41 2 -45 25 -45 23 0 25 4 25 45 0 41 -2 45 -25 45 -23
0 -25 -4 -25 -45z"/>
<path d="M500 425 c0 -43 1 -45 30 -45 29 0 30 2 30 45 0 43 -1 45 -30 45 -29
0 -30 -2 -30 -45z"/>
<path d="M600 425 c0 -41 2 -45 25 -45 23 0 25 4 25 45 0 41 -2 45 -25 45 -23
0 -25 -4 -25 -45z"/>
<path d="M690 425 c0 -41 2 -45 25 -45 23 0 25 4 25 45 0 41 -2 45 -25 45 -23
0 -25 -4 -25 -45z"/>
<path d="M780 425 c0 -43 1 -45 30 -45 29 0 30 2 30 45 0 43 -1 45 -30 45 -29
0 -30 -2 -30 -45z"/>
<path d="M880 425 c0 -41 2 -45 25 -45 23 0 25 4 25 45 0 41 -2 45 -25 45 -23
0 -25 -4 -25 -45z"/>
</g>
</svg>
