<?xml version="1.0" standalone="no"?>
<!DOCTYPE svg PUBLIC "-//W3C//DTD SVG 20010904//EN"
 "http://www.w3.org/TR/2001/REC-SVG-20010904/DTD/svg10.dtd">
<svg version="1.0" xmlns="http://www.w3.org/2000/svg"
id="svg" viewBox="-15 -10 111 151.000000"
 preserveAspectRatio="xMidYMid meet">

<g transform="translate(0.000000,131.000000) scale(0.100000,-0.100000)"
stroke="none">
<path d="M715 1290 c-22 -10 -91 -39 -153 -65 l-114 -48 -81 -123 -82 -123
-60 -1 c-53 -1 -69 -6 -140 -49 l-80 -48 -3 -192 -2 -192 30 -17 30 -17 0
-207 0 -208 30 0 30 0 0 216 0 215 22 -3 c23 -3 23 -4 26 -216 l2 -212 30 0
30 0 0 213 0 212 100 -175 c55 -96 107 -177 117 -181 20 -7 43 1 222 78 69 29
128 59 133 65 14 22 10 1072 -4 1086 -16 16 -35 14 -83 -8z m35 -549 l0 -499
-77 -32 c-43 -18 -102 -43 -131 -56 l-52 -23 2 502 3 501 120 52 c66 29 123
53 128 53 4 1 7 -224 7 -498z m-322 -332 l-3 -210 -77 135 -78 136 0 166 0
167 78 119 77 119 3 -211 c1 -115 1 -305 0 -421z m-193 451 c-3 -5 -25 -10
-48 -10 -31 0 -38 3 -27 10 20 13 83 13 75 0z m-17 -222 l-3 -153 -77 -3 -78
-3 0 30 c0 28 3 30 43 33 38 3 42 6 45 31 3 26 2 27 -42 27 l-46 0 0 45 0 45
40 0 c36 0 40 3 40 25 0 23 -4 25 -40 25 -36 0 -40 3 -40 25 0 25 1 25 80 25
l81 0 -3 -152z"/>
</g>
</svg>
