<?xml version="1.0" standalone="no"?>
<!DOCTYPE svg PUBLIC "-//W3C//DTD SVG 20010904//EN"
 "http://www.w3.org/TR/2001/REC-SVG-20010904/DTD/svg10.dtd">
<svg version="1.0" xmlns="http://www.w3.org/2000/svg"
id="svg" viewBox="0 0 141.000000 87.000000"
 preserveAspectRatio="xMidYMid meet">

<g transform="translate(0.000000,87.000000) scale(0.100000,-0.100000)"
stroke="none">
<path d="M98 864 c-3 -5 -15 -41 -27 -80 -12 -42 -31 -80 -46 -94 -23 -21 -25
-31 -25 -107 0 -49 4 -83 10 -83 6 0 10 -62 10 -165 0 -103 -4 -165 -10 -165
-6 0 -10 -35 -10 -85 l0 -85 269 0 269 0 43 53 c24 28 45 54 47 57 3 3 7 -1 9
-7 6 -16 313 -19 313 -3 0 6 14 10 30 10 27 0 30 -3 30 -30 l0 -30 88 0 c75 0
93 -3 127 -25 33 -20 53 -24 113 -25 l72 0 0 63 c0 59 -2 65 -31 86 l-32 24
27 16 c26 16 26 16 26 147 0 131 0 132 -26 149 l-26 17 31 21 c29 21 31 26 31
85 l0 62 -72 0 c-59 0 -81 -5 -117 -25 -36 -21 -56 -25 -127 -25 l-84 0 0 -30
c0 -26 -3 -30 -29 -30 -16 0 -31 6 -35 15 -4 12 -31 15 -149 15 -97 0 -147 -4
-155 -12 -6 -6 -14 -9 -17 -6 -3 2 17 17 45 32 l50 27 0 69 c0 77 3 74 -85 86
-27 3 -65 13 -84 20 -82 34 -200 56 -322 61 -69 3 -129 2 -131 -3z m279 -69
c44 -8 112 -26 151 -40 40 -14 80 -25 91 -25 35 0 51 -12 51 -36 0 -18 -12
-31 -55 -55 l-55 -31 0 -245 c0 -232 -1 -246 -21 -274 -11 -16 -29 -29 -40
-29 -18 0 -19 10 -19 273 l0 273 -65 32 c-36 18 -72 32 -80 32 -9 0 -15 10
-15 25 0 24 -2 25 -70 25 -63 0 -70 -2 -70 -20 0 -17 -7 -20 -39 -20 l-40 0
15 53 c8 28 17 58 19 65 6 17 143 16 242 -3z m1 -203 l42 -22 0 -255 0 -255
-180 0 -180 0 0 25 c0 14 5 25 10 25 14 0 14 437 0 445 -5 3 -10 20 -10 37 l0
30 138 -4 c118 -3 143 -7 180 -26z m972 5 c0 -16 -16 -34 -51 -61 l-51 -38 46
-30 46 -30 0 -102 0 -101 -45 -28 c-25 -16 -45 -30 -45 -32 0 -2 23 -20 50
-40 63 -46 67 -75 13 -75 -23 0 -54 10 -78 25 -32 19 -54 24 -107 25 l-68 0 0
225 0 225 63 0 c52 0 74 6 118 30 67 37 109 40 109 7z m-460 -257 l0 -190 -95
0 -95 0 0 190 0 190 95 0 95 0 0 -190z m-250 0 c0 -107 -4 -170 -10 -170 -6 0
-10 63 -10 170 0 107 4 170 10 170 6 0 10 -63 10 -170z m370 140 c0 -16 -7
-20 -30 -20 -23 0 -30 4 -30 20 0 16 7 20 30 20 23 0 30 -4 30 -20z m-2 -97
c-2 -11 -14 -19 -31 -21 -22 -3 -27 1 -27 17 0 17 6 21 31 21 24 0 30 -4 27
-17z m0 -95 c3 -14 -3 -18 -27 -18 -25 0 -31 4 -31 21 0 16 5 20 27 17 17 -2
29 -10 31 -20z m2 -98 c0 -16 -7 -20 -30 -20 -23 0 -30 4 -30 20 0 16 7 20 30
20 23 0 30 -4 30 -20z"/>
<path d="M180 335 l0 -145 25 0 25 0 0 145 0 145 -25 0 -25 0 0 -145z"/>
<path d="M730 440 c0 -27 3 -30 30 -30 27 0 30 3 30 30 0 27 -3 30 -30 30 -27
0 -30 -3 -30 -30z"/>
<path d="M730 334 c0 -33 2 -35 28 -32 22 2 28 8 30 36 3 30 1 32 -27 32 -29
0 -31 -3 -31 -36z"/>
</g>
</svg>
