<?xml version="1.0" standalone="no"?>
<!DOCTYPE svg PUBLIC "-//W3C//DTD SVG 20010904//EN"
 "http://www.w3.org/TR/2001/REC-SVG-20010904/DTD/svg10.dtd">
<svg version="1.0" xmlns="http://www.w3.org/2000/svg" id="img" viewBox="0 0 41.000000 41.000000"
 preserveAspectRatio="xMidYMid meet">

<g transform="translate(0.000000,41.000000) scale(0.100000,-0.100000)" stroke="none">
<path d="M109 382 c-43 -22 -59 -38 -81 -81 -37 -70 -37 -122 0 -192 22 -43
38 -59 81 -81 70 -37 122 -37 192 0 43 22 59 38 81 81 18 34 28 69 28 96 0 27
-10 62 -28 96 -22 43 -38 59 -81 81 -34 18 -69 28 -96 28 -27 0 -62 -10 -96
-28z m179 -98 c33 -7 34 -19 11 -90 -21 -68 -102 -109 -176 -89 l-28 8 34 9
c31 9 32 10 15 23 -11 7 -19 17 -19 22 -1 4 -6 18 -13 31 -9 16 -10 22 -1 22
8 0 8 4 -1 15 -7 8 -10 22 -6 30 5 14 9 13 33 -4 44 -30 73 -36 73 -14 0 37
23 48 78 37z"/>
</g>
</svg>
